<?xml version="1.0" encoding="UTF-8" standalone="no"?>
<svg xmlns="http://www.w3.org/2000/svg" viewBox="0 0 38 6.928" width="380" height="69.28">
  <g style="fill:#ffffff" transform="scale(1,1.732)">
    <path d="m0,0 2,0 -1,1z"/>
    <path d="m1.13,3 1,1 -2,0z"/>
    <path d="m1.13,3 2,0 -1,1z"/>
    <path d="m2,0 1,1 -2,0z"/>
    <path d="m2.13,2 1,1 -2,0z"/>
    <path d="m2.13,2 2,0 -1,1z"/>
    <path d="m4,0 1,1 -2,0z"/>
    <path d="m4,0 2,0 -1,1z"/>
    <path d="m5,3 1,1 -2,0z"/>
    <path d="m5,3 2,0 -1,1z"/>
    <path d="m6,2 1,1 -2,0z"/>
    <path d="m6,2 2,0 -1,1z"/>
    <path d="m7,3 1,1 -2,0z"/>
    <path d="m7,3 2,0 -1,1z"/>
    <path d="m8,0 1,1 -2,0z"/>
    <path d="m8,0 2,0 -1,1z"/>
    <path d="m9,1 2,0 -1,1z"/>
    <path d="m9,3 1,1 -2,0z"/>
    <path d="m9,3 2,0 -1,1z"/>
    <path d="m10,0 1,1 -2,0z"/>
    <path d="m10,2 2,0 -1,1z"/>
    <path d="m11,1 1,1 -2,0z"/>
    <path d="m11,3 1,1 -2,0z"/>
    <path d="m11,3 2,0 -1,1z"/>
    <path d="m12,0 2,0 -1,1z"/>
    <path d="m12,2 1,1 -2,0z"/>
    <path d="m13,1 2,0 -1,1z"/>
    <path d="m13,3 1,1 -2,0z"/>
    <path d="m14,0 1,1 -2,0z"/>
    <path d="m14,2 2,0 -1,1z"/>
    <path d="m15,1 1,1 -2,0z"/>
    <path d="m15,1 2,0 -1,1z"/>
    <path d="m17,1 1,1 -2,0z"/>
    <path d="m17,1 2,0 -1,1z"/>
    <path d="m17,3 1,1 -2,0z"/>
    <path d="m17,3 2,0 -1,1z"/>
    <path d="m18,2 2,0 -1,1z"/>
    <path d="m19,1 1,1 -2,0z"/>
    <path d="m19,1 1,1 -2,0z"/>
    <path d="m19,3 1,1 -2,0z"/>
    <path d="m19,3 2,0 -1,1z"/>
    <path d="m20,0 2,0 -1,1z"/>
    <path d="m20,2 1,1 -2,0z"/>
    <path d="m21,1 2,0 -1,1z"/>
    <path d="m21,3 1,1 -2,0z"/>
    <path d="m22,0 1,1 -2,0z"/>
    <path d="m22,0 2,0 -1,1z"/>
    <path d="m22,2 2,0 -1,1z"/>
    <path d="m23,1 1,1 -2,0z"/>
    <path d="m23,3 2,0 -1,1z"/>
    <path d="m23.5,1.5 2,0 -1,1z"/>
    <path d="m24,0 1,1 -2,0z"/>
    <path d="m24,0 2,0 -1,1z"/>
    <path d="m24,2 1,1 -2,0z"/>
    <path d="m25,3 1,1 -2,0z"/>
    <path d="m25,3 2,0 -1,1z"/>
    <path d="m25.5,1.5 1,1 -2,0z"/>
    <path d="m25.5,1.5 2,0 -1,1z"/>
    <path d="m26,0 1,1 -2,0z"/>
    <path d="m27,3 1,1 -2,0z"/>
    <path d="m27,3 2,0 -1,1z"/>
    <path d="m27.5,1.5 1,1 -2,0z"/>
    <path d="m28,0 2,0 -1,1z"/>
    <path d="m29,3 1,1 -2,0z"/>
    <path d="m30,0 1,1 -2,0z"/>
    <path d="m30,0 2,0 -1,1z"/>
    <path d="m30,2 2,0 -1,1z"/>
    <path d="m31,3 2,0 -1,1z"/>
    <path d="m32,0 1,1 -2,0z"/>
    <path d="m32,0 2,0 -1,1z"/>
    <path d="m32,2 1,1 -2,0z"/>
    <path d="m32,2 2,0 -1,1z"/>
    <path d="m33,1 2,0 -1,1z"/>
    <path d="m33,3 1,1 -2,0z"/>
    <path d="m34,0 1,1 -2,0z"/>
    <path d="m34,2 1,1 -2,0z"/>
    <path d="m34,2 2,0 -1,1z"/>
    <path d="m35,1 1,1 -2,0z"/>
    <path d="m35,3 2,0 -1,1z"/>
    <path d="m36,2 1,1 -2,0z"/>
    <path d="m37,3 1,1 -2,0z"/>
  </g>
</svg>
